<svg width="30" height="30" viewBox="0 0 30 30" fill="none" xmlns="http://www.w3.org/2000/svg">
<path d="M20 5.82843C20.2626 5.56578 20.5744 5.35744 20.9176 5.2153C21.2608 5.07316 21.6286 5 22 5C22.3714 5 22.7392 5.07316 23.0824 5.2153C23.4256 5.35744 23.7374 5.56578 24 5.82843C24.2626 6.09107 24.471 6.40287 24.6131 6.74603C24.7553 7.0892 24.8284 7.45699 24.8284 7.82843C24.8284 8.19986 24.7553 8.56766 24.6131 8.91082C24.471 9.25398 24.2626 9.56578 24 9.82843L10.5 23.3284L5 24.8284L6.5 19.3284L20 5.82843Z" fill="#333333"/>
</svg>
